<svg version="1.1" id="prefix__Layer_1" xmlns="http://www.w3.org/2000/svg" x="0" y="0" viewBox="0 0 1024 1024" xml:space="preserve"><style>.prefix__st0{fill:#51baf9}.prefix__st1{fill:#bedcee}.prefix__st2{fill:#f0f0eb}.prefix__st6{fill:#d5d7d5}.prefix__st7{fill:#dadad9}.prefix__st12{fill:#1d171e}</style><g id="prefix__iPqZ15_tif"><path class="prefix__st0" d="M293.26 555.12c-25.22-120.45 56.01-246.59 178.8-266.92 14.61-2.45 29.71-4.12 44.56-3.55.7.03 1.41.03 2.1.15.01 0 .05.01.05.01-1.98 6.02-4.77 12.02-6.75 18.04-25.47-.94-49.11 3.93-72.78 13-28.73 11.01-53.64 27.63-74.98 49.92-17.18 17.94-30.66 38.1-40.7 60.76-9.21 20.8-14.87 42.57-16.2 65.12-1.54 26.19.32 52.15 8.42 77.56 8.96 28.09 22.67 53.34 42.23 75.22 21.96 24.56 47.96 43.69 78.95 55.61 22.1 8.5 44.84 13.64 68.62 13.96 15.43.21 30.78-.21 45.99-3.05 1.64 5.62 3.27 11.24 4.91 16.86-1.11.33-2.21.77-3.34.96-23.68 3.84-47.39 4.52-71.24 1.3-86.5-10.73-160-76.04-184.66-159.01"/><path class="prefix__st1" d="M556.49 727.82c-1.64-5.62-3.27-11.24-4.9-16.86.1-.31.18-.61.25-.93 3.58-.53 7.26-.71 10.74-1.63 24.69-6.57 47.78-16.53 68.67-31.52 27.14-19.48 48.81-43.75 64.24-73.32 11.96-22.92 20.2-47.23 21.64-73.22.9-16.32 1.62-32.92-.36-49.05-1.89-15.41-6.54-30.67-11.49-45.48-9.46-28.29-25.98-52.58-47.17-73.28-10.92-10.67-23.34-20.11-36.14-28.47-30.89-20.16-65.05-30.59-102.08-31.31-2.13-.04-5.62.02-7.86.1 1.74-5.31 5.01-12.73 6.75-18.04 263.38 4.07 294.83 393.79 37.71 443.01z"/><path class="prefix__st2" d="M736.25 485.47l-.99-6.01c.33 2.01.66 4.01.99 6.01z"/><path d="M293.37 461.56c-.34 1.67-.69 3.34-1.03 5.01.34-1.67.69-3.34 1.03-5.01z" fill="#e8e9e8"/><path class="prefix__st2" d="M735.24 477.49l-.96-4.02.96 4.02z"/><path class="prefix__st1" d="M508.77 284.65c-1.37.03-2.73.06-4.1.1 1.36-.04 2.73-.07 4.1-.1z"/><path class="prefix__st2" d="M734.22 470.51l-.93-3.03c.3 1.01.62 2.02.93 3.03z"/><path d="M551.84 710.04c-.07.31-.16.62-.26.93-15.21 2.84-30.57 3.26-45.99 3.05-23.78-.32-46.52-5.46-68.62-13.96-30.99-11.92-56.99-31.05-78.95-55.61-19.57-21.88-33.28-47.13-42.23-75.22-8.1-25.41-9.97-51.37-8.42-77.56 1.33-22.55 6.99-44.32 16.2-65.12 10.03-22.66 23.52-42.82 40.7-60.76 21.34-22.29 46.25-38.91 74.98-49.92 23.42-8.97 47.6-13.82 72.78-13-1.85 5.49-3.67 11-5.56 16.48-11.15 32.44-20.3 65.43-26.46 99.19-4.73 25.9-7.83 52.01-8.2 78.38-.15 10.73 4.64 15.49 15.31 15.51 14.12.03 28.24-.03 42.36.02 8.02.03 11.06 3.2 11.18 11.18.33 22.57.59 45.14 1.14 67.7.25 10.25 1.14 20.49 1.74 30.74-10.65 1.33-21.26 3.05-31.95 3.83-5.13.38-14.04-.33-19.24-.95-8.72-1.04-13.89-2.23-22.48-3.93-32.09-6.36-60.36-19.93-82.24-45.06-1.07-1.23-2.46-2.85-3.83-2.98-2.4-.23-5.75-.26-7.11 1.16-1.36 1.42-1.29 4.81-.85 7.15.33 1.75 2.19 3.24 3.48 4.76 10.79 12.67 23.57 22.96 38.22 30.77 39.68 21.17 82.03 26.08 126.07 20.13.28.08.56.18.84.29.72 10.87 1.11 21.78 2.23 32.61 1.41 13.42 3.41 26.79 5.16 40.19zM400.09 414.65c-.16.3-.18.61-.05.93v31.98c-.13.32-.12.63.03.94 1.14 5.81 5.61 9.41 11.11 8.93 5.73-.5 9.68-4.66 9.73-10.56.08-10.12.1-20.25-.01-30.37-.06-5.78-3.67-9.59-9.39-10.32-5.57-.7-9.94 2.53-11.42 8.47z" fill="#3e9df7"/><path d="M519.88 302.76c37.02.72 71.19 11.15 102.08 31.31 12.81 8.36 25.22 17.8 36.14 28.47 21.19 20.7 37.7 44.98 47.17 73.28 4.96 14.82 9.6 30.07 11.49 45.48 1.98 16.13 1.26 32.73.36 49.05-1.44 25.98-9.68 50.3-21.64 73.22-15.43 29.57-37.1 53.84-64.24 73.32-20.88 14.99-43.98 24.96-68.67 31.52-3.48.93-7.16 1.11-10.74 1.63-1.74-13.4-3.75-26.77-5.15-40.2-1.13-10.83-1.52-21.74-2.23-32.61 1.79-.36 3.57-.76 5.36-1.08 26.91-4.7 52.33-13.26 74.83-29.21 9.55-6.77 18.02-14.72 24.52-24.54 2.51-3.79 1.45-8.01-2.41-10.29-3.76-2.23-6.6-.77-8.86 2.56-7.02 10.4-16.47 18.15-27.09 24.57-20.74 12.54-43.51 19.23-67.23 23.13l-.06-.32c-.6-10.25-1.49-20.48-1.74-30.74-.55-22.56-.81-45.13-1.14-67.7-.12-7.98-3.16-11.15-11.18-11.18-14.12-.05-28.24 0-42.36-.02-10.67-.02-15.46-4.77-15.31-15.51.37-26.37 3.48-52.48 8.2-78.38 6.16-33.76 15.31-66.75 26.46-99.19 1.88-5.48 3.7-10.98 5.56-16.48M626.35 432v-14.45c0-.33.02-.67-.01-1-.46-6.25-5.06-10.63-11.03-10.5-5.92.13-10.18 4.2-10.31 10.51-.2 10.13-.21 20.26.01 30.39.14 6.43 4.81 10.68 10.85 10.51 6.02-.18 10.31-4.6 10.47-11.01.11-4.81.01-9.63.02-14.45z" fill="#a2cde7"/><path class="prefix__st6" d="M296.07 566.29c-.26-.76-.52-1.52-.77-2.29.25.77.51 1.53.77 2.29z"/><path class="prefix__st7" d="M726.24 578.23c-.33.69-.65 1.37-.98 2.06.33-.69.65-1.38.98-2.06z"/><path d="M695.29 639.07c-.33.35-.67.7-1 1.05.34-.35.67-.7 1-1.05z" fill="#cdcfcd"/><path class="prefix__st7" d="M725.24 581.22l-.94 1.09c.31-.36.62-.73.94-1.09zM727.23 575.23c-.32.36-.63.72-.95 1.08.32-.36.64-.72.95-1.08z"/><path d="M543.61 636.93c-44.05 5.95-86.39 1.04-126.07-20.13-14.64-7.81-27.43-18.1-38.22-30.77-1.29-1.51-3.15-3.01-3.48-4.76-.44-2.34-.51-5.73.85-7.15 1.36-1.42 4.71-1.38 7.11-1.16 1.37.13 2.76 1.76 3.83 2.98 21.88 25.14 50.15 38.7 82.24 45.06 8.59 1.7 15.37 3.09 24.09 4.13 5.2.62 12.49 1.12 17.62.75 10.69-.78 21.31-2.5 31.95-3.83l.06.32c.01 4.86.01 9.71.02 14.56z" fill="#1f2a33"/><path d="M543.61 636.93l-.03-14.55c23.72-3.9 46.49-10.59 67.23-23.13 10.62-6.42 20.07-14.17 27.09-24.57 2.25-3.34 5.09-4.79 8.86-2.56 3.86 2.29 4.92 6.5 2.41 10.29-6.5 9.83-14.97 17.77-24.52 24.54-22.51 15.94-47.92 24.5-74.83 29.21-1.79.31-3.57.71-5.36 1.08-.28-.12-.56-.22-.85-.31z" fill="#2a2e32"/><path d="M400.04 447.56v-31.98c.12-.08.36-.2.35-.25-.06-.24-.19-.46-.3-.69 1.48-5.94 5.85-9.17 11.42-8.47 5.72.73 9.33 4.54 9.39 10.32.1 10.12.09 20.25.01 30.37-.05 5.89-3.99 10.06-9.73 10.56-5.49.48-9.96-3.12-11.11-8.93.12-.09.35-.23.33-.27-.08-.22-.23-.44-.36-.66z" fill="#1f2932"/><path class="prefix__st12" d="M400.04 447.56c.13.22.28.43.36.67.02.04-.21.18-.33.27-.15-.31-.16-.62-.03-.94zM400.09 414.65c.11.23.23.45.3.69.01.05-.22.16-.35.25-.13-.33-.11-.64.05-.94z"/><path d="M626.35 432c0 4.82.09 9.63-.02 14.45-.16 6.4-4.45 10.83-10.47 11.01-6.03.18-10.71-4.08-10.85-10.51-.22-10.13-.21-20.26-.01-30.39.13-6.31 4.38-10.38 10.31-10.51 5.97-.13 10.58 4.25 11.03 10.5.02.33.01.66.01 1V432z" fill="#2a2f32"/></g></svg>